<svg xmlns="http://www.w3.org/2000/svg" width="217.884" height="191.844" viewBox="0 0 217.884 191.844">
  <path id="bluesky_media_kit_logo_svgs" d="M275.229,294.355c24.98,18.753,51.847,56.779,61.713,77.183,9.866-20.4,36.733-58.43,61.713-77.183,18.024-13.532,47.229-24,47.229,9.315,0,6.654-3.815,55.9-6.052,63.89-7.777,27.793-36.118,34.882-61.328,30.591,44.066,7.5,55.275,32.342,31.066,57.183-45.978,47.18-66.083-11.837-71.235-26.96-.944-2.772-1.386-4.069-1.393-2.966-.007-1.1-.448.194-1.393,2.966-5.152,15.122-25.257,74.139-71.235,26.96-24.209-24.842-13-49.684,31.066-57.183-25.21,4.291-53.55-2.8-61.328-30.591-2.238-7.995-6.052-57.236-6.052-63.89C228,270.354,257.2,280.824,275.229,294.355Z" transform="translate(-228 -281.442)" fill="currentColor"/>
</svg>
